<?xml version="1.0" encoding="UTF-8" standalone="no" ?>
<!DOCTYPE svg PUBLIC "-//W3C//DTD SVG 1.1//EN" "http://www.w3.org/Graphics/SVG/1.1/DTD/svg11.dtd">
<svg xmlns="http://www.w3.org/2000/svg" xmlns:xlink="http://www.w3.org/1999/xlink" version="1.1" width="672.167578125" height="154.35112" xml:space="preserve">
<desc>Created with Fabric.js 1.6.0-rc.1</desc>
<defs></defs>
  <g transform="translate(251.12 82.38) scale(2.41 2.41)">
   <text font-family="Harrington" font-size="40" font-weight="normal" style="stroke: none; stroke-width: 1; stroke-dasharray: none; stroke-linecap: butt; stroke-linejoin: miter; stroke-miterlimit: 10; fill: #c91818; fill-rule: nonzero; opacity: 1;" ><tspan x="-99.55" y="8.98" style="stroke: none; stroke-width: 0; stroke-dasharray: none; stroke-linecap: butt; stroke-linejoin: miter; stroke-miterlimit: 4; fill: #c91818; fill-rule: ; opacity: 1;">P</tspan><tspan x="-72.75" y="8.98" style="stroke: none; stroke-width: 0; stroke-dasharray: none; stroke-linecap: butt; stroke-linejoin: miter; stroke-miterlimit: 4; fill: #c91818; fill-rule: ; opacity: 1;">R</tspan><tspan x="-45.45" y="8.98" style="stroke: none; stroke-width: 0; stroke-dasharray: none; stroke-linecap: butt; stroke-linejoin: miter; stroke-miterlimit: 4; fill: #c91818; fill-rule: ; opacity: 1;">v</tspan><tspan x="-26.07" y="8.98" style="stroke: none; stroke-width: 0; stroke-dasharray: none; stroke-linecap: butt; stroke-linejoin: miter; stroke-miterlimit: 4; fill: #c91818; fill-rule: ; opacity: 1;"> </tspan><tspan x="-16.07" y="8.98" style="stroke: none; stroke-width: 0; stroke-dasharray: none; stroke-linecap: butt; stroke-linejoin: miter; stroke-miterlimit: 4; fill: #c91818; fill-rule: ; opacity: 1;">c</tspan><tspan x="3.69" y="8.98" style="stroke: none; stroke-width: 0; stroke-dasharray: none; stroke-linecap: butt; stroke-linejoin: miter; stroke-miterlimit: 4; fill: #c91818; fill-rule: ; opacity: 1;">o</tspan><tspan x="26.62" y="8.98" style="stroke: none; stroke-width: 0; stroke-dasharray: none; stroke-linecap: butt; stroke-linejoin: miter; stroke-miterlimit: 4; fill: #c91818; fill-rule: ; opacity: 1;">l</tspan><tspan x="37.56" y="8.98" style="stroke: none; stroke-width: 0; stroke-dasharray: none; stroke-linecap: butt; stroke-linejoin: miter; stroke-miterlimit: 4; fill: #c91818; fill-rule: ; opacity: 1;">l</tspan><tspan x="48.5" y="8.98" style="stroke: none; stroke-width: 0; stroke-dasharray: none; stroke-linecap: butt; stroke-linejoin: miter; stroke-miterlimit: 4; fill: #c91818; fill-rule: ; opacity: 1;">e</tspan><tspan x="68.14" y="8.98" style="stroke: none; stroke-width: 0; stroke-dasharray: none; stroke-linecap: butt; stroke-linejoin: miter; stroke-miterlimit: 4; fill: #c91818; fill-rule: ; opacity: 1;">c</tspan><tspan x="87.91" y="8.98" style="stroke: none; stroke-width: 0; stroke-dasharray: none; stroke-linecap: butt; stroke-linejoin: miter; stroke-miterlimit: 4; fill: #c91818; fill-rule: ; opacity: 1;">t</tspan></text>
 </g>
  <g transform="translate(609.29 74.39) scale(2.41 2.41)">
   <text font-family="Harrington" font-size="40" font-weight="normal" style="stroke: none; stroke-width: 1; stroke-dasharray: none; stroke-linecap: butt; stroke-linejoin: miter; stroke-miterlimit: 10; fill: #c91818; fill-rule: nonzero; opacity: 1;" ><tspan x="-22.44" y="8.98" style="stroke: none; stroke-width: 0; stroke-dasharray: none; stroke-linecap: butt; stroke-linejoin: miter; stroke-miterlimit: 4; fill: #c91818; fill-rule: ; opacity: 1;">o</tspan><tspan x="0.49" y="8.98" style="stroke: none; stroke-width: 0; stroke-dasharray: none; stroke-linecap: butt; stroke-linejoin: miter; stroke-miterlimit: 4; fill: #c91818; fill-rule: ; opacity: 1;">n</tspan></text>
 </g>
<g style="stroke: none; stroke-width: 1; stroke-dasharray: none; stroke-linecap: butt; stroke-linejoin: miter; stroke-miterlimit: 10; fill: none; fill-rule: nonzero; opacity: 1;" transform="translate(499.01000000000005 17.99000000000001) scale(0.25 0.25)" >
  <path d="M 116.533 254.985 l 6.856 -3.976 l 52.12 -57.364 l -50.153 -38.351 l -7.438 3.395 l -46.292 48.768 z" style="stroke: none; stroke-width: 1; stroke-dasharray: none; stroke-linecap: butt; stroke-linejoin: miter; stroke-miterlimit: 10; fill: #ffc010; fill-rule: nonzero; opacity: 1;" transform=" matrix(1.0000000564646394 0 0 1.0000000564646394 0 0) " stroke-linecap="round" />
  <path d="M 49.9 482.166 c -10.315 0 -13.502 1.002 -2.583 3.359 c 9.615 2.076 18.12 2.868 21.142 1.202 c 1.761 -0.972 0.94 -8.946 -0.218 -11.855 c -2.458 -6.174 5.777 -20.2 10.653 -25.076 c 4.094 -4.094 5.381 -1.446 7.703 1.939 c 4.172 6.086 8.777 16.88 11.31 21.32 c 0.393 0.688 1.32 0.226 0.818 -0.942 C 85.395 441 89.016 439.32 88.4 434.553 c -0.41 -3.17 -11.285 -6.14 -9.749 -4.894 c 5.575 4.52 10.322 7.05 3.378 14.945 c -3.886 4.417 -10.265 4.11 -16.23 19.79 c -1.575 3.128 -2.009 7.35 -0.989 9.929 c 5.48 13.85 -3.059 11.697 -8.48 10.966 c -10.325 -1.391 -6.43 -3.123 -6.43 -3.123 z M 165.344 406.728 c -1.826 3.514 -2.372 17.937 0.905 12.583 c 4.861 -7.942 7.812 -23.12 7.65 -26.568 c -0.096 -2.008 -1.642 -5.53 -6.448 -5.772 c -6.637 -0.338 -17.578 -6.85 -19.007 -12.676 c -0.543 -2.218 1.975 -8.01 5.566 -9.997 c 1.911 -1.058 14.23 -5.991 22.51 -8.25 c 0.765 -0.21 0.891 -2.112 -0.329 -1.748 c -29.174 8.74 -26.896 5.307 -31.687 5.683 c -11.146 0.874 -17.06 3.583 -15.082 3.583 c 6.517 0 11.727 -3.036 15.747 5.22 c 2.576 5.29 0.058 8.395 5.792 14.128 c 3.427 4.106 12.1 6.23 15.987 7.232 c 8.04 2.068 3.318 10.514 1.43 15.87 c -2.942 8.333 -3.034 0.712 -3.034 0.712 z" style="stroke: none; stroke-width: 1; stroke-dasharray: none; stroke-linecap: butt; stroke-linejoin: miter; stroke-miterlimit: 10; fill: #da1f26; fill-rule: nonzero; opacity: 1;" transform=" matrix(1.0000000564646394 0 0 1.0000000564646394 0 0) " stroke-linecap="round" />
  <path d="M 158.767 387.11 c -12.84 -3.798 -11.856 -13.255 -13.169 -17.187 c -2.6 -7.803 -8.194 -7.54 -14.75 -6.393 c -7.307 1.278 -27.087 -15.776 -59.004 -54.468 c -3.768 -4.567 -7.38 -8.286 -10.817 -11.363 c 0.028 -7.63 -0.458 -15.065 -3.195 -25.845 c 13.984 5.538 29.483 20.066 42.86 1.949 c -20.964 18.028 -45.638 -16.276 -41.227 -48.836 c 1.86 -13.73 3.012 -24.251 0.7 -33.746 a 30.448 30.448 0 0 0 -1.443 -5.885 c 21.784 -9.118 45.091 -18.978 49.344 -23.23 c 1.938 -1.94 5.626 -6.598 3.332 -11.036 c -11.04 -21.356 -14.28 -37.283 -20.27 -51.394 l 0.031 0.063 c 4.396 -8.767 -4.07 -10.57 -5.105 -16.415 c -0.9 -5.09 1.526 3.169 10.158 0.875 c 5.137 -1.366 10 -10.431 17.48 -2.95 c 6.72 6.72 -7.2 18.838 2.022 9.615 c 9.89 -9.888 1.99 -21.202 -4.202 -19.521 c -4.32 1.173 -7.75 1.553 -10.437 1.33 c -0.327 -1.264 -0.727 -2.304 -1.169 -3.168 c 1.117 0.23 2.418 0.405 3.952 0.49 c 5.24 0.294 17.297 -3.814 24.804 -7.647 c 9.332 -4.766 16.367 2.564 14.367 5.408 c -4.206 5.979 -8.474 -0.33 -7.922 -2.786 c -3.77 3.769 3.695 12.31 9.943 4.808 c 7.447 -8.943 -4.066 -21.825 -10.927 -23.22 c -9.919 -2.014 -12.094 2.658 -18.43 4.654 c -2.043 -5.05 -7.38 -7.391 -16.93 -2.353 a 3.826 3.826 0 0 1 -1.463 0.419 c -2.734 -1.365 -4.98 -3.168 -6.879 -5.258 a 16.143 16.143 0 0 0 2.583 1.384 c 7.87 3.378 14.056 -3.064 15.501 -5.41 c 5.152 -8.356 8.53 -13.944 15.801 -11.236 c 4.248 1.58 3.03 6.56 -0.229 9.612 c -1.136 1.063 2.717 -0.692 3.618 -1.717 c 2.884 -3.275 0.37 -7.283 -1.787 -8.543 c -2.993 -1.75 -10.913 -2.76 -4.203 -2.2 c 6.61 0.553 7.974 4.05 8.672 7.554 c 1.033 5.19 -4.188 8.495 -6.235 8.767 c -5.195 0.69 -6.418 -4.143 -5.563 -6.958 c -1.826 1.854 -1.536 6.775 2.812 8.998 c 7.552 3.859 14.366 -6.356 14.741 -11.501 c 0.46 -6.292 -2.52 -13.845 -8.877 -18.29 c -17.92 -12.526 -29.922 12.09 -45.048 11.179 c -0.407 -0.024 -0.803 -0.09 -1.202 -0.146 l -0.663 -1.93 c 0.594 0.07 1.041 0.093 1.34 0.177 c 7.21 2.03 19.46 -9.713 31.57 -14.975 c 5.128 -2.23 9.358 -2.483 13.002 -0.137 c 4.5 2.899 4.585 11.565 9.408 6.868 c 2.114 -2.063 0.671 -5.17 -0.814 -5.111 c 2.464 2.626 -0.254 5.393 -1.255 5.342 c -3.767 -0.188 -1.673 -5.682 -7.808 -8.818 c -8.035 -4.108 -18.308 2.213 -29.869 9.812 c -7.088 4.658 -12.048 6.007 -16.13 5.236 c -0.79 -2.262 -1.588 -4.427 -2.48 -6.396 C 70.747 1.13 54.686 -3.87 42.34 3.125 c 0 0 -2.957 -0.314 -9.982 5.568 c -5.707 4.779 -6.023 10.373 -3.229 13.724 c -2.624 1.695 -6.5 -4.097 -3.755 -0.36 c 1.591 2.166 2.091 1.405 2.298 2.7 c 0.41 1.558 -1.216 2.57 -2.132 3.033 c -2.67 1.345 -5.98 1.72 -8.194 1.72 c 4.102 2.454 6.195 4.672 3.688 4.672 c -1.584 0 -0.748 1.759 0.082 2.212 c 3.301 1.804 -1.257 0.002 -1.557 2.049 c -0.31 2.12 1.366 0.683 1.147 2.868 c -0.49 3.715 -3.557 8.445 -2.567 8.85 c 5.735 2.35 15.218 -2.361 20.213 0.547 c 2.996 1.744 5.924 14.495 3.56 22.844 c -15.425 20.736 -24.807 19.202 -28.855 21.465 c -1.865 1.042 -7.813 10.544 2.513 20.869 c -7.832 17.25 -10.424 28.015 -10.58 28.673 c -2.14 7.3 -2.59 14.833 -2.404 21.899 c -3.69 13.305 1.532 37.256 2.841 53.027 c 2.265 27.327 -2.532 36.372 -5.372 59.968 c -0.35 2.903 0.791 -0.228 8.387 -3.671 c 0.055 3.973 0.08 7.542 0.08 10.607 c 3.022 2.375 15.838 11.588 32.814 23.692 c 10.1 39.688 26.94 101.409 23.457 127.527 c -3.497 26.224 -5.19 20.992 -5.19 27.917 c 0 9.507 -2.403 14.313 -8.359 16.118 c -6.507 1.97 3.224 3.986 10.927 3.986 c 9.998 0 -0.588 -9.815 3.278 -20.322 c 7.54 -20.487 17.343 -16.83 19.793 -25.606 c 2.271 -8.14 -8.843 -7.61 -12.09 -17.498 c -2.808 -8.553 -8.522 -50.417 -11.802 -94.35 c -0.096 -1.28 -0.17 -2.502 -0.239 -3.698 c 37.137 26.393 82.223 58.269 94.971 67.399 c 5.127 3.672 10.776 5.183 9.18 15.732 c -0.82 5.409 4.701 0.05 6.313 -13.681 c 0.22 -1.821 -7.687 -4.98 -12.808 -6.494 z M 55.21 178.53 a 27.829 27.829 0 0 0 -4.822 -5.231 c -2.658 -3.004 -5.88 -6.051 -9.796 -9.221 a 129.164 129.164 0 0 1 -2.155 -2.341 c 5.005 2.92 9.175 4.699 10.676 3.839 c -1.039 -3.825 -23.568 -24.338 4.54 -42.268 C 63.071 117.3 69.134 111.692 71 108.88 c 4.267 2.979 7.971 7.062 10.895 12.252 c 8.66 15.373 10.384 20.213 16.171 31.904 c -28.374 12.529 -25.595 17.399 -42.855 25.495 z M 93.805 68.253 c 0.524 0.077 1.036 0.198 1.515 0.419 c 1.943 0.899 2.785 2.189 3.067 3.507 c -2.325 -0.718 -3.807 -2.093 -4.582 -3.926 z m 17.313 -20.34 c 1.731 0.645 2.858 1.887 3.496 3.599 c -2.237 0.549 -4.986 0.76 -8.679 0.293 c -2.596 -0.328 -4.897 -0.935 -6.952 -1.768 c 7.396 -2.28 7.96 -3.68 12.135 -2.124 z m -81.774 -32.46 a 5.608 5.608 0 0 0 -0.11 1.223 c 0.016 0.54 0.04 1.023 0.063 1.479 c -0.23 -1.25 -0.249 -2.286 0.047 -2.702 z M 2.592 166.48 c 0.02 0.758 0.048 1.509 0.082 2.255 a 11.992 11.992 0 0 1 -0.082 -2.255 z M 25.19 277.704 c -0.592 -2.038 -1.006 -4.194 -1.264 -6.383 a 98.15 98.15 0 0 1 5.855 -0.797 c 0.81 3.822 1.904 7.819 3.128 11.888 c -4.255 -1.235 -6.956 -2.082 -7.719 -4.708 z" style="stroke: none; stroke-width: 1; stroke-dasharray: none; stroke-linecap: butt; stroke-linejoin: miter; stroke-miterlimit: 10; fill: #013d25; fill-rule: nonzero; opacity: 1;" transform=" matrix(1.0000000564646394 0 0 1.0000000564646394 0 0) " stroke-linecap="round" />
  <path d="M 104.624 177.928 s -13.083 -19.403 -24.898 -15.493 l -2.539 1.636 s 16.73 1.619 23.503 15.605 l 3.934 -1.748 z M 88.966 189.189 l 3.64 -1.865 l -9.036 -12.568 l -3.843 1.677 z" style="stroke: none; stroke-width: 1; stroke-dasharray: none; stroke-linecap: butt; stroke-linejoin: miter; stroke-miterlimit: 10; fill: #ffc010; fill-rule: nonzero; opacity: 1;" transform=" matrix(1.0000000564646394 0 0 1.0000000564646394 0 0) " stroke-linecap="round" />
</g>
</svg>